<svg class="editVector" viewBox="0 0 20 20" fill="none" xmlns="http://www.w3.org/2000/svg">
<path d="M7.533 9.15113C7.36388 9.32027 7.22976 9.52108 7.13831 9.74209C7.04685 9.96309 6.99985 10.2 7 10.4391V13.0011H9.578C10.061 13.0011 10.525 12.8091 10.867 12.4671L18.467 4.86313C18.6365 4.69407 18.7709 4.49324 18.8627 4.27214C18.9544 4.05104 19.0016 3.81401 19.0016 3.57463C19.0016 3.33526 18.9544 3.09823 18.8627 2.87713C18.7709 2.65603 18.6365 2.45519 18.467 2.28613L17.716 1.53513C17.5469 1.36551 17.346 1.23093 17.1248 1.1391C16.9036 1.04727 16.6665 1 16.427 1C16.1875 1 15.9504 1.04727 15.7292 1.1391C15.508 1.23093 15.3071 1.36551 15.138 1.53513L7.533 9.15113Z"  stroke-width="1.5" stroke-linecap="round" stroke-linejoin="round" class="editVectorPencil"/>
<path d="M19 10.0011C19 14.2441 19 16.3651 17.682 17.6831C16.364 19.0011 14.242 19.0011 10 19.0011C5.758 19.0011 3.636 19.0011 2.318 17.6831C1 16.3651 1 14.2431 1 10.0011C1 5.75913 1 3.63713 2.318 2.31913C3.636 1.00113 5.758 1.00113 10 1.00113" stroke-width="1.5" stroke-linecap="round" stroke-linejoin="round" class="editVectorOuter"/>
</svg>
