<svg id="logo" width="144" height="144" viewBox="0 0 144 144" fill="none" xmlns="http://www.w3.org/2000/svg">
<path fill-rule="evenodd" clip-rule="evenodd" d="M141.402 92.892C138.661 86.5476 133.892 81.2927 127.842 77.952C121.921 74.5344 115.19 72.7728 108.354 72.852C100.89 73.0122 93.5464 74.7718 86.82 78.012C79.9215 81.3397 74.2073 86.7 70.446 93.372C66.5772 101.508 65.7266 110.755 68.046 119.46C68.9155 123.847 70.736 127.99 73.3794 131.598C76.0228 135.205 79.4249 138.189 83.346 140.34C86.766 141.96 90.432 143.022 94.2 143.454C97.9005 143.965 101.654 143.965 105.354 143.454C105.576 143.425 105.789 143.351 105.982 143.238C106.175 143.126 106.343 142.975 106.477 142.797C106.612 142.618 106.709 142.414 106.763 142.197C106.817 141.98 106.828 141.755 106.794 141.534C106.762 141.195 106.625 140.875 106.401 140.618C106.177 140.362 105.878 140.183 105.546 140.106C105.325 140.06 105.097 140.056 104.874 140.094C101.496 140.443 98.0859 140.342 94.734 139.794C91.411 139.265 88.1929 138.212 85.2 136.674C82.0084 134.66 79.2858 131.984 77.2157 128.829C75.1457 125.673 73.7763 122.11 73.2 118.38C71.4704 110.949 72.4491 103.145 75.96 96.372C79.147 90.912 83.947 86.5732 89.7 83.952C95.5881 81.1417 102.011 79.6276 108.534 79.512C114.192 79.4011 119.779 80.788 124.728 83.532C129.72 86.1819 133.704 90.3978 136.068 95.532C139.234 102.559 139.514 110.548 136.848 117.78C134.109 125.086 128.825 131.158 121.968 134.88C120.048 135.972 118.048 136.892 115.968 137.64C114.671 138.078 113.316 138.321 111.948 138.36C111.663 138.31 111.371 138.323 111.092 138.398C110.813 138.472 110.553 138.608 110.332 138.793C110.11 138.979 109.932 139.211 109.81 139.473C109.688 139.735 109.625 140.021 109.625 140.31C109.625 140.599 109.688 140.885 109.81 141.147C109.932 141.409 110.11 141.641 110.332 141.827C110.553 142.012 110.813 142.148 111.092 142.222C111.371 142.297 111.663 142.31 111.948 142.26C113.7 142.233 115.438 141.95 117.108 141.42C119.485 140.503 121.758 139.337 123.888 137.94C131.895 133.941 138.166 127.156 141.522 118.86C144.866 110.519 144.823 101.202 141.402 92.892Z" class="outsideStroke"/>
<path fill-rule="evenodd" clip-rule="evenodd" d="M109.374 89.232C109.44 88.8063 109.341 88.3715 109.097 88.0162C108.853 87.661 108.483 87.4121 108.063 87.3202C107.642 87.2284 107.202 87.3006 106.832 87.522C106.463 87.7435 106.191 88.0975 106.074 88.512C104.507 92.9209 103.165 97.4067 102.054 101.952C101.394 104.952 100.914 107.946 100.194 110.886C100.194 110.886 100.194 114.666 103.254 114.846H104.514L109.854 114.426L123.228 112.686C123.743 112.686 124.238 112.486 124.607 112.127C124.977 111.769 125.192 111.281 125.208 110.766C125.208 110.257 125.006 109.768 124.646 109.408C124.286 109.048 123.797 108.846 123.288 108.846L109.548 108.546H107.268C107.268 107.406 107.628 106.326 107.748 105.246C108.648 100.026 108.654 94.626 109.374 89.232ZM26.778 9.156C25.8476 8.68659 24.8201 8.44206 23.778 8.44206C22.7359 8.44206 21.7084 8.68659 20.778 9.156C19.758 9.936 16.938 16.896 13.344 42.93C12.144 51.03 9.984 58.464 8.544 65.598C6.804 73.458 5.424 80.958 3.864 88.038C2.304 93.262 1.044 98.558 0.0840027 103.926C-0.0817441 104.794 -0.0134954 105.691 0.281743 106.524C0.576981 107.357 1.08857 108.096 1.764 108.666C7.26 110.784 12.9459 112.371 18.744 113.406C33.798 116.706 54.072 119.946 57.312 120.786C57.8204 120.874 58.3432 120.761 58.769 120.469C59.1949 120.178 59.4902 119.732 59.592 119.226C59.6791 118.725 59.5638 118.209 59.2713 117.793C58.9788 117.377 58.5331 117.094 58.032 117.006C54.672 116.226 34.872 111.906 20.124 108.006C14.124 106.446 9.204 105.066 6.504 103.986C7.224 99.546 10.044 90.072 10.224 89.412C11.244 84.552 12.324 79.512 13.224 74.172C16.284 56.844 18.744 36.99 23.484 13.296V12.996C24.144 13.376 24.824 13.716 25.524 14.016C26.1979 14.2864 26.9501 14.2864 27.624 14.016C28.0161 13.7005 28.3166 13.2859 28.4943 12.8151C28.6721 12.3443 28.7206 11.8346 28.6349 11.3387C28.5492 10.8428 28.3324 10.3789 28.0069 9.99511C27.6814 9.6113 27.2592 9.32158 26.784 9.156M107.154 54.504C107.634 52.464 107.994 50.484 108.354 48.504C108.714 46.524 108.894 44.484 109.134 42.504C109.614 38.184 109.914 33.63 110.334 28.23C110.423 27.8958 110.423 27.5442 110.334 27.21C110.334 27.21 110.814 26.73 110.874 26.43C110.944 26.1569 110.956 25.8719 110.907 25.594C110.858 25.3162 110.751 25.052 110.592 24.8191C110.433 24.5862 110.226 24.3899 109.985 24.2435C109.744 24.097 109.474 24.0038 109.194 23.97C107.634 23.25 106.734 23.13 105.114 22.53C104.119 22.3821 103.109 22.3821 102.114 22.53C100.614 22.53 98.574 26.73 100.014 27.03C102.138 27.402 104.278 27.662 106.434 27.81C105.174 32.97 104.034 37.29 103.074 41.37C102.654 43.41 102.234 45.39 101.874 47.37C101.514 49.35 101.214 51.33 101.034 53.364C100.554 57.624 100.374 62.184 100.014 67.644C99.9709 67.865 99.9726 68.0923 100.019 68.3126C100.066 68.5329 100.156 68.7416 100.285 68.9263C100.413 69.111 100.578 69.2679 100.768 69.3878C100.959 69.5076 101.172 69.588 101.394 69.624C101.836 69.6801 102.284 69.57 102.65 69.315C103.015 69.06 103.274 68.6784 103.374 68.244C103.734 66.864 106.674 56.424 107.154 54.504Z" class="outsideStroke"/>
<path fill-rule="evenodd" clip-rule="evenodd" d="M123.768 22.416C123.303 20.2141 122.315 18.1563 120.888 16.416C119.462 14.4077 117.507 12.8342 115.24 11.8703C112.973 10.9064 110.484 10.5899 108.048 10.956L105.834 10.536C99.054 9.156 94.134 7.596 87.42 6.096C85.02 5.556 82.38 5.136 79.38 4.596C76.38 4.056 72.06 3.516 68.286 3.096C42.672 0.396001 42.078 -2.178 35.178 3.816C34.39 4.44493 33.6845 5.17064 33.078 5.976C32.498 6.876 31.998 7.816 31.578 8.796C30.9505 10.6194 30.4493 12.4838 30.078 14.376C27.138 29.976 23.718 46.464 18.918 72.498C18.258 76.098 15.984 81.798 15.264 86.838C14.8062 89.3273 14.9087 91.8873 15.564 94.332C16.0632 95.3606 16.7946 96.2592 17.7005 96.9569C18.6064 97.6545 19.662 98.1321 20.784 98.352C27.564 100.272 43.332 100.932 55.932 103.392C56.425 103.5 56.9407 103.409 57.3674 103.14C57.794 102.87 58.0975 102.444 58.212 101.952C58.2743 101.704 58.2863 101.445 58.2472 101.192C58.2082 100.939 58.119 100.697 57.9849 100.479C57.8507 100.261 57.6743 100.072 57.466 99.9228C57.2577 99.774 57.0217 99.6683 56.772 99.612C48.072 97.332 37.452 95.952 30.078 94.452C25.878 93.672 20.298 93.252 21.318 91.932C21.318 91.932 21.678 92.412 21.738 92.652C21.4066 90.4038 21.5704 88.1103 22.218 85.932C23.238 81.612 24.858 76.992 25.578 73.932C26.718 68.838 28.098 63.738 28.818 58.584C34.818 18.096 33.858 21.036 37.158 12.516C37.818 10.836 39.558 6.516 42.078 5.556C48.678 5.61 55.26 6.396 61.686 7.896C67.146 8.976 72.666 9.816 78.366 10.956C86.886 12.036 92.34 13.176 98.394 14.076L100.914 14.436C93.654 20.436 93.834 23.736 88.14 44.424C87.6 46.224 87.24 48.084 86.88 49.944C86.52 51.804 86.22 53.604 85.98 55.464C85.44 59.844 85.08 64.224 84.72 68.604C84.6783 68.8561 84.6872 69.1139 84.7464 69.3625C84.8056 69.611 84.9138 69.8453 85.0647 70.0515C85.2156 70.2577 85.4061 70.4317 85.6251 70.5633C85.8441 70.6949 86.0871 70.7815 86.34 70.818C86.8412 70.9051 87.3565 70.7898 87.7728 70.4973C88.189 70.2048 88.4721 69.7591 88.56 69.258C89.64 64.998 90.9 60.858 91.98 56.658C92.46 54.798 92.88 53.004 93.3 51.204C93.72 49.404 93.96 47.544 94.2 45.684C94.8402 38.5745 96.4762 31.5902 99.06 24.936C99.7908 22.2191 101.5 19.8683 103.86 18.336C104.762 17.5759 105.814 17.0156 106.948 16.6922C108.082 16.3687 109.272 16.2894 110.439 16.4595C111.606 16.6296 112.723 17.0453 113.718 17.679C114.712 18.3127 115.561 19.1502 116.208 20.136C117.168 21.522 117.744 23.136 117.888 24.816C118.092 26.816 118.092 28.816 117.888 30.816C117.888 34.41 117.348 38.13 116.868 41.85C116.388 45.57 115.788 49.29 115.008 52.824L113.148 60.204C112.966 60.65 112.825 61.112 112.728 61.584C112.232 61.674 111.724 61.674 111.228 61.584C110.428 61.5451 109.639 61.3832 108.888 61.104C106.674 61.104 105.594 63.984 107.628 64.884C108.948 65.508 110.376 65.88 111.828 65.964C113.214 66.0667 114.601 65.7974 115.848 65.184C116.389 64.8966 116.813 64.4299 117.048 63.864C117.348 63.036 117.588 62.196 117.768 61.344L120.048 54.324C121.212 50.604 122.152 46.824 122.868 42.984C123.568 39.152 124.068 35.294 124.368 31.41C124.589 28.3967 124.387 25.3673 123.768 22.41" class="insideStroke" />
<path fill-rule="evenodd" clip-rule="evenodd" d="M87.96 30.75C88.0739 30.2497 87.9952 29.7249 87.7394 29.2801C87.4837 28.8353 87.0697 28.5032 86.58 28.35C81.12 26.49 75.66 24.69 69.96 23.31C67.566 22.71 65.106 22.23 62.646 21.81C60.186 21.39 57.786 21.09 55.266 20.85C49.272 20.43 43.692 20.49 37.938 20.85C37.4924 20.85 37.0651 21.027 36.7501 21.3421C36.435 21.6571 36.258 22.0844 36.258 22.53C36.258 22.9756 36.435 23.4029 36.7501 23.7179C37.0651 24.033 37.4924 24.21 37.938 24.21C44.358 25.11 50.652 26.55 57.072 27.69C60.912 28.41 64.752 28.89 68.586 29.49C74.586 30.39 80.106 31.17 85.8 32.37C86.2956 32.4096 86.7886 32.2668 87.1863 31.9685C87.5841 31.6702 87.8592 31.2369 87.96 30.75ZM76.26 50.184C76.4659 49.7134 76.4808 49.1813 76.3017 48.6999C76.1226 48.2185 75.7634 47.8255 75.3 47.604C73.9992 46.9099 72.6324 46.3471 71.22 45.924C69.186 45.324 67.086 44.904 65.226 44.424C63.366 43.944 62.166 43.704 60.606 43.524C58.2986 43.2266 55.9718 43.1063 53.646 43.164C49.7316 43.4199 45.8546 44.0835 42.078 45.144C41.6325 45.2316 41.2366 45.4843 40.9695 45.8515C40.7025 46.2187 40.5841 46.6732 40.638 47.124C40.7119 47.5646 40.9526 47.9599 41.31 48.228C41.6674 48.4961 42.1143 48.6164 42.558 48.564H46.998C49.998 48.564 52.992 49.284 55.752 49.584C58.512 49.884 61.752 49.584 64.572 50.184H70.566C71.726 50.28 72.866 50.5 73.986 50.844C74.3863 50.9951 74.8248 51.0125 75.2359 50.8935C75.6469 50.7745 76.0083 50.5256 76.266 50.184M60.546 65.058C58.9085 64.5696 57.2462 64.1691 55.566 63.858C53.8967 63.5894 52.2143 63.4091 50.526 63.318C46.5205 63.2098 42.5127 63.4104 38.538 63.918C38.1393 63.993 37.7794 64.2049 37.5204 64.5172C37.2614 64.8294 37.1197 65.2223 37.1197 65.628C37.1197 66.0337 37.2614 66.4266 37.5204 66.7388C37.7794 67.0511 38.1393 67.263 38.538 67.338C42.918 67.938 46.998 69.018 51.192 69.798C53.712 70.278 56.172 70.578 58.752 70.998C62.592 71.538 66.366 72.018 70.206 72.858C70.6994 73.0102 71.2327 72.9636 71.6922 72.7282C72.1518 72.4929 72.5012 72.0873 72.666 71.598C72.8182 71.1046 72.7716 70.5713 72.5362 70.1118C72.3009 69.6522 71.8953 69.3028 71.406 69.138C67.862 67.578 64.242 66.218 60.546 65.058Z" class="insideStroke" />
</svg>