<svg id="trackerLogo" width="181" height="156" viewBox="0 0 181 156" fill="none" xmlns="http://www.w3.org/2000/svg">
<path d="M132.717 138.571C125.321 130.836 120.395 120.886 118.617 110.09C116.517 91.4247 115.915 72.6073 116.816 53.8361C116.719 53.2742 116.437 52.7659 116.019 52.3999C115.601 52.0339 115.073 51.8334 114.529 51.8334C113.984 51.8334 113.457 52.0339 113.039 52.3999C112.621 52.7659 112.339 53.2742 112.241 53.8361C110.783 73.0029 110.783 92.261 112.241 111.428C113.126 116.99 114.566 122.443 116.516 127.714C118.86 132.482 121.73 136.945 125.067 141.01C111.566 148.878 67.8406 145.416 54.1904 144.708C42.1902 144.079 38.3651 146.518 36.2651 136.84C33.2199 114.146 32.3655 91.1871 33.715 68.3127C34.999 59.6751 35.3763 50.9158 34.8401 42.1919C34.315 38.022 30.415 39.989 30.715 43.136C28.1128 60.4231 26.6592 77.8791 26.3649 95.3776C26.1849 110.743 27.1149 126.101 29.14 141.325C29.7067 144.255 31.1067 146.936 33.1552 149.015C35.2037 151.094 37.8047 152.472 40.6152 152.969C44.8583 153.66 49.1464 154.002 53.4404 153.992C71.7107 155.786 90.101 155.975 108.416 154.543C119.667 153.127 139.017 148.091 132.717 138.571Z" class="bottom-tracker"/>
<path d="M43.09 42.1132C55.9152 42.1132 109.091 44.4736 120.341 42.1132C121.691 41.8172 122.937 41.1366 123.941 40.1463C126.686 36.5946 128.592 32.413 129.504 27.9423C130.417 23.4716 130.309 18.838 129.192 14.4189C125.141 0.414374 112.616 0.493052 98.441 0.493052C84.2657 0.493052 69.7905 1.75188 59.8153 1.27982C49.8401 0.807759 35.6649 1.27982 35.0649 1.27982C24.0397 0.0209883 11.4395 8.04605 6.48937 29.6823C3.68058 47.916 1.87755 66.3045 1.08927 84.7562C0.666965 103.995 1.19268 123.244 2.6643 142.427C2.90954 143.042 3.35922 143.543 3.92985 143.836C4.50049 144.13 5.15333 144.197 5.76718 144.023C6.38103 143.851 6.91419 143.45 7.2677 142.896C7.6212 142.341 7.77104 141.672 7.68939 141.01C6.77236 115.234 7.85092 89.4217 10.9144 63.8281C13.0145 48.0927 12.6395 25.5124 22.7647 14.2615C24.0986 12.348 25.8762 10.8235 27.929 9.83216C29.9817 8.84087 32.2418 8.41569 34.495 8.5969C36.7482 8.77812 38.92 9.55972 40.8047 10.8677C42.6895 12.1756 44.2247 13.9667 45.265 16.0711C46.3619 19.4295 46.4842 23.0539 45.6163 26.4852C44.7485 29.9166 42.9296 33.0007 40.39 35.347C39.3399 36.0551 37.6899 42.0346 43.09 42.1132ZM50.5901 12.924C47.2901 6.55119 44.89 6.47251 45.9401 6.47251C51.1151 6.47251 56.1402 7.10193 58.9903 7.41664C73.0905 8.9115 100.991 7.8887 113.741 10.485C115.797 10.8487 117.668 11.9495 119.036 13.5997C120.404 15.2499 121.184 17.347 121.241 19.5329C122.891 36.5272 114.866 33.6948 112.241 34.0095C95.8159 35.8191 62.0653 36.6845 45.565 37.0779C48.5137 33.9753 50.5484 30.0478 51.4262 25.7646C52.304 21.4814 51.9877 17.0237 50.5151 12.924H50.5901Z" class="top-tracker"/>
<path d="M64.9906 58.9502C61.8489 61.6406 59.0953 64.7942 56.8154 68.3128C52.0153 75.5511 52.3903 77.518 50.0653 76.1805C49.7131 75.8751 49.3055 75.6479 48.8672 75.5126C48.4289 75.3774 47.9689 75.3369 47.5153 75.3937C42.4152 77.5967 50.3653 86.8806 56.2154 83.2614C64.9156 76.1018 64.6906 68.4701 68.4406 62.7267C68.7676 62.22 68.9191 61.611 68.8698 61.0013C68.8206 60.3916 68.5736 59.8181 68.17 59.3763C67.7664 58.9346 67.2307 58.6513 66.6521 58.5737C66.0735 58.4962 65.4871 58.6291 64.9906 58.9502ZM81.6409 81.6092C86.6559 81.4676 91.656 81.048 96.6411 80.3504C97.3174 80.3504 97.966 80.0685 98.4443 79.5669C98.9225 79.0652 99.1912 78.3848 99.1912 77.6753C100.316 70.2797 70.6157 72.404 70.1656 76.3378C69.7156 80.2717 80.4408 81.4518 81.6409 81.6092ZM62.4405 97.738C58.0154 104.819 55.9154 106.629 51.4153 114.496C50.7447 114.365 50.0905 114.153 49.4653 113.867C49.3463 113.573 49.1717 113.307 48.9521 113.086C48.7324 112.865 48.4723 112.693 48.1874 112.581C47.9025 112.468 47.5989 112.417 47.2947 112.431C46.9906 112.445 46.6924 112.524 46.4181 112.663C46.1439 112.801 45.8992 112.997 45.6991 113.237C45.4989 113.478 45.3473 113.759 45.2536 114.062C45.1598 114.366 45.1258 114.687 45.1536 115.005C45.1814 115.323 45.2704 115.632 45.4152 115.912C46.3827 118.17 47.8753 120.145 49.7653 121.656C57.2654 127.163 64.3155 108.91 67.0906 100.098C67.3419 99.4587 67.3508 98.7425 67.1156 98.0962C66.8805 97.4499 66.4189 96.9221 65.8252 96.6208C65.2316 96.3195 64.5507 96.2673 63.9216 96.4749C63.2925 96.6826 62.7627 97.1344 62.4405 97.738ZM98.4411 117.407C98.9051 116.883 99.1629 116.195 99.1629 115.48C99.1629 114.765 98.9051 114.076 98.4411 113.552C96.8661 111.192 88.766 110.484 86.9659 110.562C81.5443 110.922 76.182 111.952 70.9907 113.631C70.1656 114.811 69.7906 115.755 70.5407 116.621C71.2907 117.486 69.5656 117.093 80.5908 119.689C86.5884 119.416 92.5566 118.653 98.4411 117.407ZM179.893 8.91153C175.467 -5.093 157.842 2.06662 152.817 9.6983C151.9 11.1149 151.404 12.7852 151.392 14.4976C139.167 16.2285 138.867 35.6618 138.642 47.6993C139.167 65.087 138.642 69.965 141.867 69.6503C145.092 69.3356 144.267 66.5032 146.592 48.1714C148.917 29.8396 147.342 24.5683 151.467 20.1624C152.067 20.1624 151.467 54.859 152.892 58.3208C150.867 66.6605 149.517 108.517 148.992 119.925C148.492 123.785 148.342 127.667 148.542 131.569C150.239 138.336 154.276 144.197 159.867 148.013C164.517 150.452 167.367 145.81 168.942 142.427C173.11 137.186 175.299 130.523 175.092 123.701C175.092 105.291 174.642 118.587 176.593 56.9833C178.129 52.4274 178.989 47.6511 179.143 42.8214C180.118 32.5147 182.218 16.1498 179.893 8.91153ZM159.417 15.127C161.381 13.1166 163.811 11.6792 166.467 10.9571C170.517 10.1704 170.667 9.77698 171.417 11.4292C171.987 12.8454 172.317 14.3639 172.392 15.9138C172.68 28.5961 172.254 41.2851 171.117 53.9148C170.442 53.9148 169.167 54.5443 168.717 54.5443H157.467C156.942 49.981 156.792 60.445 159.417 15.127ZM161.517 138.178C159.489 135.931 157.953 133.245 157.017 130.31C157.617 109.697 155.667 77.3606 157.017 60.3664C161.627 60.8384 166.252 60.9958 170.892 60.8384L167.367 109.54C166.617 131.097 167.442 128.343 161.517 137.863V138.178Z" class="inner-tracker"/>
</svg>


