<svg id="userAvatarId" viewBox="0 0 22 22" fill="none" xmlns="http://www.w3.org/2000/svg">
<path d="M11 0.5C5.201 0.5 0.5 5.201 0.5 11C0.5 16.799 5.201 21.5 11 21.5C16.799 21.5 21.5 16.799 21.5 11C21.5 5.201 16.799 0.5 11 0.5ZM1.5 11C1.50001 9.44879 1.87988 7.92118 2.6064 6.55062C3.33293 5.18007 4.38403 4.00828 5.66785 3.13762C6.95167 2.26695 8.42917 1.72391 9.97126 1.55593C11.5134 1.38796 13.0731 1.60015 14.5143 2.17398C15.9555 2.74782 17.2342 3.66583 18.2388 4.84781C19.2433 6.0298 19.9432 7.4398 20.2772 8.95463C20.6112 10.4695 20.5691 12.043 20.1548 13.5379C19.7404 15.0327 18.9662 16.4033 17.9 17.53C17.7362 16.6339 17.3123 15.8058 16.681 15.149C15.938 14.375 15.002 13.921 14.18 13.665C13.653 13.501 13.143 13.688 12.79 13.925C12.407 14.184 11.777 14.5 11 14.5C10.223 14.5 9.593 14.184 9.21 13.926C8.857 13.687 8.347 13.501 7.82 13.665C6.998 13.921 6.062 14.375 5.319 15.149C4.68756 15.8054 4.26326 16.6331 4.099 17.529C2.42736 15.7665 1.4969 13.4291 1.5 11ZM5.005 18.37C5.061 17.23 5.481 16.423 6.04 15.842C6.63 15.227 7.4 14.843 8.118 14.619C8.246 14.579 8.437 14.61 8.651 14.755C9.128 15.077 9.953 15.5 11 15.5C12.047 15.5 12.872 15.077 13.349 14.755C13.563 14.61 13.754 14.579 13.882 14.619C14.601 14.843 15.369 15.227 15.96 15.842C16.519 16.422 16.939 17.231 16.995 18.37C15.3025 19.7508 13.1843 20.5034 11 20.5C8.81569 20.5034 6.6975 19.7508 5.005 18.37ZM8.5 9C8.5 7.615 9.58 6.5 11 6.5C12.42 6.5 13.5 7.615 13.5 9C13.5 10.385 12.42 11.5 11 11.5C9.58 11.5 8.5 10.386 8.5 9ZM11 5.5C10.5393 5.496 10.0823 5.5838 9.65589 5.75827C9.22944 5.93275 8.84201 6.1904 8.51621 6.51621C8.1904 6.84201 7.93275 7.22944 7.75827 7.65589C7.5838 8.08233 7.496 8.53926 7.5 9C7.5 10.928 9.019 12.5 11 12.5C12.981 12.5 14.5 10.928 14.5 9C14.5 7.072 12.981 5.5 11 5.5Z" class="userAvatar"/>
</svg>
